<svg width="141" height="40" viewBox="0 0 141 40" fill="none" xmlns="http://www.w3.org/2000/svg">
<path d="M14.2208 4.98869C15.6455 4.48917 17.2113 5.16285 17.7174 6.49273C18.1048 7.51091 17.7581 8.61769 16.9363 9.30529L17.3804 10.5163L18.0869 11.3316C18.2482 11.5182 18.4928 11.6074 18.738 11.5772C19.3991 11.4959 20.056 11.4928 20.6993 11.5604C20.9173 11.5836 21.1342 11.5116 21.2907 11.3595L21.8005 10.8661L22.1764 9.77185C21.8566 9.33293 21.7483 8.75165 21.9379 8.19933C22.2597 7.26306 23.3107 6.77916 24.2454 7.16256C25.0506 7.49245 25.4887 8.38808 25.253 9.22153C25.1032 9.75239 24.7241 10.15 24.2576 10.3468L23.8415 11.5594L23.9364 12.2276C23.969 12.4573 24.1054 12.6579 24.3047 12.7782C24.9746 13.1847 25.5899 13.6817 26.1301 14.2562C26.3116 14.4496 26.5824 14.5325 26.8427 14.4801L28.1825 14.2111L29.6961 13.3717C29.7039 12.6274 30.1017 11.9079 30.8019 11.5195C31.8606 10.9326 33.2014 11.327 33.7655 12.4024C34.2748 13.3725 33.9551 14.592 33.0327 15.1892C32.3124 15.6547 31.4335 15.6377 30.7551 15.2402L29.2325 16.084L28.3823 16.9871C28.1541 17.2294 28.0728 17.572 28.1599 17.8928C28.1604 17.8947 28.1607 17.896 28.1612 17.8979C28.3102 18.4507 28.4006 19.0063 28.438 19.557C28.4597 19.8851 28.6454 20.1803 28.9362 20.3371L30.0459 20.9353L32.2454 21.35C32.6331 21.0124 33.1672 20.8491 33.713 20.9515C34.6915 21.1363 35.3215 22.1048 35.0708 23.0797C34.8551 23.9145 34.0325 24.4703 33.1723 24.3609C32.5857 24.2863 32.1121 23.9338 31.8578 23.4598L29.6441 23.0427L28.2787 23.2089C28.027 23.24 27.8072 23.3975 27.7046 23.628C27.296 24.5379 26.7323 25.3748 26.0363 26.0973C25.8634 26.2768 25.7985 26.5338 25.8613 26.7744L26.2006 28.0843L27.0384 29.3942C27.9599 29.2563 28.9188 29.6536 29.4508 30.4856C30.1659 31.6034 29.8415 33.0834 28.7285 33.8046C27.6161 34.5257 26.1023 34.2119 25.3732 33.1081C24.8627 32.3353 24.8571 31.382 25.2709 30.6257L24.3815 29.2354L23.288 28.3384C23.1261 28.2048 22.9054 28.1695 22.7078 28.2397C22.4885 28.3178 22.2649 28.3876 22.0362 28.4485C20.7935 28.7796 19.5406 28.8223 18.3489 28.6198C18.1742 28.5905 17.9955 28.6402 17.8619 28.7557L17.2751 29.2642L16.8386 30.336C17.1339 30.7923 17.2093 31.3783 16.9894 31.919C16.6156 32.8366 15.5392 33.2616 14.6276 32.8274C13.8425 32.4535 13.4548 31.535 13.7366 30.7157C13.916 30.1939 14.3158 29.8178 14.7928 29.6473L15.2763 28.4594L15.1865 27.4161C14.3146 26.8717 13.5388 26.1731 12.9044 25.3474L11.4132 25.4942L10.0175 26.1823C10.0266 27.1158 9.54482 28.0039 8.69918 28.4338C7.50426 29.0407 6.03648 28.5034 5.42117 27.2331C4.80604 25.9634 5.27521 24.4421 6.47012 23.8352C7.36433 23.3809 8.41073 23.5673 9.13879 24.2224L10.455 23.573L11.3685 22.5962C11.4282 22.5323 11.4503 22.4424 11.4276 22.3584L11.4273 22.3571C11.0051 20.7902 11.0482 19.2063 11.4718 17.7506C11.4945 17.6707 11.4774 17.5846 11.4235 17.521L10.6355 16.5826L8.93758 15.6942C8.46992 15.8994 7.9155 15.8988 7.42793 15.6434C6.54711 15.182 6.22972 14.0748 6.75476 13.2157C7.2157 12.4624 8.19747 12.1764 8.99469 12.5626C9.51073 12.8124 9.84362 13.2797 9.94203 13.7966L11.6399 14.6849L12.8484 14.7983C12.9323 14.8064 13.0141 14.7711 13.0674 14.7061C13.6155 14.0312 14.268 13.4354 15.0092 12.9467C15.2126 12.8119 15.339 12.5886 15.3422 12.3453L15.3547 11.2518L14.881 9.96133C13.8541 9.88759 12.9251 9.26768 12.557 8.30058C12.0509 6.97071 12.7959 5.48757 14.2208 4.98869Z" fill="#EC5863"/>
<path d="M25.9898 18.4765C25.0729 15.0737 21.5559 13.0542 18.1342 13.966C14.7125 14.8778 12.6819 18.3756 13.5988 21.7784C14.5156 25.1813 18.0327 27.2007 21.4543 26.2889C24.876 25.3771 26.9066 21.8794 25.9898 18.4765Z" fill="#F58A97"/>
<path d="M20.9484 24.4109C17.8476 25.2372 14.6687 23.6565 13.4172 20.8204C13.4527 21.1391 13.5128 21.4592 13.5988 21.7785C14.5156 25.1814 18.0326 27.2008 21.4543 26.2889C24.8761 25.3771 26.9066 21.8795 25.9898 18.4765C25.9037 18.1573 25.7949 17.8502 25.6653 17.5566C26.0073 20.635 24.049 23.5847 20.9484 24.4109Z" fill="#F07281"/>
<path d="M11.324 33.496C11.0629 32.5269 10.0614 31.9518 9.08698 32.2115C8.11258 32.4711 7.53433 33.4672 7.79542 34.4362C8.05651 35.4053 9.05807 35.9804 10.0325 35.7207C11.0069 35.4611 11.5851 34.465 11.324 33.496Z" fill="#EB5569"/>
<path d="M34.1106 27.9379C33.9381 27.2979 33.2766 26.918 32.633 27.0895C31.9894 27.261 31.6074 27.9189 31.7799 28.559C31.9523 29.1991 32.6139 29.5789 33.2575 29.4074C33.9011 29.2359 34.283 28.578 34.1106 27.9379Z" fill="#EB5569"/>
<path d="M30.8429 6.00213C30.5889 5.05936 29.6145 4.49988 28.6665 4.75249C27.7185 5.0051 27.1559 5.97416 27.4099 6.91693C27.6639 7.8597 28.6383 8.41918 29.5863 8.16656C30.5343 7.91395 31.0969 6.9449 30.8429 6.00213Z" fill="#EB5569"/>
<path d="M20.1955 22.0477C19.9587 21.1687 19.0502 20.6471 18.1664 20.8826C17.2826 21.1181 16.7581 22.0216 16.9949 22.9005C17.2318 23.7795 18.1402 24.3011 19.024 24.0656C19.9078 23.8301 20.4323 22.9266 20.1955 22.0477Z" fill="#EB5569"/>
<path d="M24.3108 19.5818C24.1496 18.9835 23.5313 18.6285 22.9297 18.7888C22.3281 18.9491 21.9711 19.564 22.1323 20.1623C22.2935 20.7606 22.9119 21.1156 23.5134 20.9553C24.115 20.795 24.472 20.18 24.3108 19.5818Z" fill="#EB5569"/>
<path d="M19.9578 17.0961C19.8224 16.5937 19.3032 16.2956 18.7981 16.4302C18.2929 16.5648 17.9931 17.0812 18.1285 17.5835C18.2639 18.0859 18.7831 18.384 19.2882 18.2494C19.7934 18.1148 20.0932 17.5984 19.9578 17.0961Z" fill="#EB5569"/>
<path d="M51.462 26.18C50.322 26.18 49.338 25.994 48.51 25.622C47.694 25.238 47.058 24.686 46.602 23.966C46.158 23.234 45.912 22.346 45.864 21.302C45.852 20.786 45.846 20.24 45.846 19.664C45.846 19.076 45.852 18.518 45.864 17.99C45.912 16.97 46.164 16.106 46.62 15.398C47.076 14.69 47.718 14.15 48.546 13.778C49.374 13.406 50.346 13.22 51.462 13.22C52.362 13.22 53.16 13.334 53.856 13.562C54.552 13.778 55.134 14.072 55.602 14.444C56.082 14.816 56.442 15.224 56.682 15.668C56.934 16.112 57.066 16.55 57.078 16.982C57.09 17.09 57.054 17.18 56.97 17.252C56.898 17.324 56.808 17.36 56.7 17.36H54.072C53.94 17.36 53.838 17.342 53.766 17.306C53.706 17.258 53.652 17.192 53.604 17.108C53.52 16.928 53.394 16.742 53.226 16.55C53.07 16.346 52.848 16.172 52.56 16.028C52.284 15.884 51.918 15.812 51.462 15.812C50.778 15.812 50.238 15.992 49.842 16.352C49.458 16.712 49.248 17.288 49.212 18.08C49.176 19.112 49.176 20.156 49.212 21.212C49.248 22.052 49.47 22.658 49.878 23.03C50.286 23.402 50.826 23.588 51.498 23.588C51.954 23.588 52.356 23.51 52.704 23.354C53.064 23.198 53.346 22.958 53.55 22.634C53.754 22.298 53.856 21.872 53.856 21.356V21.014H52.164C52.032 21.014 51.918 20.972 51.822 20.888C51.738 20.792 51.696 20.678 51.696 20.546V19.214C51.696 19.082 51.738 18.974 51.822 18.89C51.918 18.794 52.032 18.746 52.164 18.746H56.7C56.832 18.746 56.94 18.794 57.024 18.89C57.108 18.974 57.15 19.082 57.15 19.214V21.266C57.15 22.298 56.916 23.18 56.448 23.912C55.98 24.644 55.314 25.208 54.45 25.604C53.598 25.988 52.602 26.18 51.462 26.18ZM63.4451 26.18C62.4371 26.18 61.5851 26.018 60.8891 25.694C60.2051 25.37 59.6771 24.908 59.3051 24.308C58.9451 23.696 58.7411 22.97 58.6931 22.13C58.6811 21.89 58.6751 21.62 58.6751 21.32C58.6751 21.008 58.6811 20.738 58.6931 20.51C58.7411 19.658 58.9571 18.932 59.3411 18.332C59.7251 17.732 60.2591 17.27 60.9431 16.946C61.6391 16.622 62.4731 16.46 63.4451 16.46C64.4291 16.46 65.2631 16.622 65.9471 16.946C66.6431 17.27 67.1831 17.732 67.5671 18.332C67.9511 18.932 68.1671 19.658 68.2151 20.51C68.2271 20.738 68.2331 21.008 68.2331 21.32C68.2331 21.62 68.2271 21.89 68.2151 22.13C68.1671 22.97 67.9571 23.696 67.5851 24.308C67.2251 24.908 66.6971 25.37 66.0011 25.694C65.3171 26.018 64.4651 26.18 63.4451 26.18ZM63.4451 23.984C63.9851 23.984 64.3751 23.822 64.6151 23.498C64.8671 23.174 65.0111 22.688 65.0471 22.04C65.0591 21.86 65.0651 21.62 65.0651 21.32C65.0651 21.02 65.0591 20.78 65.0471 20.6C65.0111 19.964 64.8671 19.484 64.6151 19.16C64.3751 18.824 63.9851 18.656 63.4451 18.656C62.9171 18.656 62.5271 18.824 62.2751 19.16C62.0231 19.484 61.8851 19.964 61.8611 20.6C61.8491 20.78 61.8431 21.02 61.8431 21.32C61.8431 21.62 61.8491 21.86 61.8611 22.04C61.8851 22.688 62.0231 23.174 62.2751 23.498C62.5271 23.822 62.9171 23.984 63.4451 23.984Z" fill="black"/>
<path d="M75.3674 26.18C74.2274 26.18 73.2494 25.994 72.4334 25.622C71.6294 25.25 70.9994 24.704 70.5434 23.984C70.0994 23.264 69.8534 22.37 69.8054 21.302C69.7934 20.81 69.7874 20.282 69.7874 19.718C69.7874 19.154 69.7934 18.614 69.8054 18.098C69.8534 17.054 70.1054 16.172 70.5614 15.452C71.0174 14.72 71.6534 14.168 72.4694 13.796C73.2854 13.412 74.2514 13.22 75.3674 13.22C76.1594 13.22 76.8914 13.322 77.5634 13.526C78.2354 13.718 78.8234 14.006 79.3274 14.39C79.8314 14.762 80.2214 15.218 80.4974 15.758C80.7854 16.286 80.9354 16.886 80.9474 17.558C80.9594 17.666 80.9234 17.756 80.8394 17.828C80.7674 17.9 80.6774 17.936 80.5694 17.936H78.1394C77.9834 17.936 77.8634 17.906 77.7794 17.846C77.6954 17.774 77.6234 17.648 77.5634 17.468C77.3954 16.832 77.1194 16.4 76.7354 16.172C76.3634 15.932 75.9014 15.812 75.3494 15.812C74.6894 15.812 74.1674 15.998 73.7834 16.37C73.3994 16.73 73.1894 17.336 73.1534 18.188C73.1174 19.172 73.1174 20.18 73.1534 21.212C73.1894 22.064 73.3994 22.676 73.7834 23.048C74.1674 23.408 74.6894 23.588 75.3494 23.588C75.9014 23.588 76.3694 23.468 76.7534 23.228C77.1374 22.988 77.4074 22.556 77.5634 21.932C77.6114 21.752 77.6774 21.632 77.7614 21.572C77.8574 21.5 77.9834 21.464 78.1394 21.464H80.5694C80.6774 21.464 80.7674 21.5 80.8394 21.572C80.9234 21.644 80.9594 21.734 80.9474 21.842C80.9354 22.514 80.7854 23.12 80.4974 23.66C80.2214 24.188 79.8314 24.644 79.3274 25.028C78.8234 25.4 78.2354 25.688 77.5634 25.892C76.8914 26.084 76.1594 26.18 75.3674 26.18ZM87.0701 26.18C86.0621 26.18 85.2101 26.018 84.5141 25.694C83.8301 25.37 83.3021 24.908 82.9301 24.308C82.5701 23.696 82.3661 22.97 82.3181 22.13C82.3061 21.89 82.3001 21.62 82.3001 21.32C82.3001 21.008 82.3061 20.738 82.3181 20.51C82.3661 19.658 82.5821 18.932 82.9661 18.332C83.3501 17.732 83.8841 17.27 84.5681 16.946C85.2641 16.622 86.0981 16.46 87.0701 16.46C88.0541 16.46 88.8881 16.622 89.5721 16.946C90.2681 17.27 90.8081 17.732 91.1921 18.332C91.5761 18.932 91.7921 19.658 91.8401 20.51C91.8521 20.738 91.8581 21.008 91.8581 21.32C91.8581 21.62 91.8521 21.89 91.8401 22.13C91.7921 22.97 91.5821 23.696 91.2101 24.308C90.8501 24.908 90.3221 25.37 89.6261 25.694C88.9421 26.018 88.0901 26.18 87.0701 26.18ZM87.0701 23.984C87.6101 23.984 88.0001 23.822 88.2401 23.498C88.4921 23.174 88.6361 22.688 88.6721 22.04C88.6841 21.86 88.6901 21.62 88.6901 21.32C88.6901 21.02 88.6841 20.78 88.6721 20.6C88.6361 19.964 88.4921 19.484 88.2401 19.16C88.0001 18.824 87.6101 18.656 87.0701 18.656C86.5421 18.656 86.1521 18.824 85.9001 19.16C85.6481 19.484 85.5101 19.964 85.4861 20.6C85.4741 20.78 85.4681 21.02 85.4681 21.32C85.4681 21.62 85.4741 21.86 85.4861 22.04C85.5101 22.688 85.6481 23.174 85.9001 23.498C86.1521 23.822 86.5421 23.984 87.0701 23.984ZM94.0784 26C93.9464 26 93.8384 25.958 93.7544 25.874C93.6704 25.79 93.6284 25.682 93.6284 25.55V17.09C93.6284 16.97 93.6704 16.868 93.7544 16.784C93.8384 16.688 93.9464 16.64 94.0784 16.64H96.1484C96.2804 16.64 96.3884 16.688 96.4724 16.784C96.5564 16.868 96.5984 16.97 96.5984 17.09V17.81C96.9224 17.438 97.3064 17.15 97.7504 16.946C98.2064 16.742 98.7164 16.64 99.2804 16.64H100.072C100.192 16.64 100.294 16.682 100.378 16.766C100.474 16.85 100.522 16.958 100.522 17.09V18.944C100.522 19.064 100.474 19.172 100.378 19.268C100.294 19.352 100.192 19.394 100.072 19.394H98.3264C97.8344 19.394 97.4504 19.532 97.1744 19.808C96.9104 20.072 96.7784 20.45 96.7784 20.942V25.55C96.7784 25.682 96.7304 25.79 96.6344 25.874C96.5504 25.958 96.4424 26 96.3104 26H94.0784ZM106.16 26.18C105.152 26.18 104.3 26.018 103.604 25.694C102.92 25.37 102.392 24.908 102.02 24.308C101.66 23.696 101.456 22.97 101.408 22.13C101.396 21.89 101.39 21.62 101.39 21.32C101.39 21.008 101.396 20.738 101.408 20.51C101.456 19.658 101.672 18.932 102.056 18.332C102.44 17.732 102.974 17.27 103.658 16.946C104.354 16.622 105.188 16.46 106.16 16.46C107.144 16.46 107.978 16.622 108.662 16.946C109.358 17.27 109.898 17.732 110.282 18.332C110.666 18.932 110.882 19.658 110.93 20.51C110.942 20.738 110.948 21.008 110.948 21.32C110.948 21.62 110.942 21.89 110.93 22.13C110.882 22.97 110.672 23.696 110.3 24.308C109.94 24.908 109.412 25.37 108.716 25.694C108.032 26.018 107.18 26.18 106.16 26.18ZM106.16 23.984C106.7 23.984 107.09 23.822 107.33 23.498C107.582 23.174 107.726 22.688 107.762 22.04C107.774 21.86 107.78 21.62 107.78 21.32C107.78 21.02 107.774 20.78 107.762 20.6C107.726 19.964 107.582 19.484 107.33 19.16C107.09 18.824 106.7 18.656 106.16 18.656C105.632 18.656 105.242 18.824 104.99 19.16C104.738 19.484 104.6 19.964 104.576 20.6C104.564 20.78 104.558 21.02 104.558 21.32C104.558 21.62 104.564 21.86 104.576 22.04C104.6 22.688 104.738 23.174 104.99 23.498C105.242 23.822 105.632 23.984 106.16 23.984ZM113.168 26C113.036 26 112.928 25.958 112.844 25.874C112.76 25.79 112.718 25.682 112.718 25.55V17.09C112.718 16.958 112.76 16.85 112.844 16.766C112.928 16.682 113.036 16.64 113.168 16.64H115.238C115.37 16.64 115.478 16.682 115.562 16.766C115.646 16.85 115.688 16.958 115.688 17.09V17.774C116 17.402 116.408 17.09 116.912 16.838C117.416 16.586 118.01 16.46 118.694 16.46C119.39 16.46 120.002 16.616 120.53 16.928C121.07 17.24 121.49 17.702 121.79 18.314C122.102 18.914 122.258 19.652 122.258 20.528V25.55C122.258 25.682 122.21 25.79 122.114 25.874C122.03 25.958 121.928 26 121.808 26H119.54C119.42 26 119.312 25.958 119.216 25.874C119.132 25.79 119.09 25.682 119.09 25.55V20.636C119.09 20.072 118.952 19.64 118.676 19.34C118.412 19.028 118.016 18.872 117.488 18.872C116.996 18.872 116.6 19.028 116.3 19.34C116.012 19.64 115.868 20.072 115.868 20.636V25.55C115.868 25.682 115.82 25.79 115.724 25.874C115.64 25.958 115.538 26 115.418 26H113.168ZM127.075 26.18C126.427 26.18 125.845 26.06 125.329 25.82C124.825 25.568 124.423 25.232 124.123 24.812C123.823 24.392 123.673 23.918 123.673 23.39C123.673 22.538 124.021 21.866 124.717 21.374C125.413 20.87 126.337 20.528 127.489 20.348L129.739 20.006V19.754C129.739 19.322 129.649 18.992 129.469 18.764C129.289 18.536 128.959 18.422 128.479 18.422C128.143 18.422 127.867 18.488 127.651 18.62C127.447 18.752 127.285 18.932 127.165 19.16C127.057 19.316 126.907 19.394 126.715 19.394H124.699C124.567 19.394 124.465 19.358 124.393 19.286C124.321 19.202 124.291 19.106 124.303 18.998C124.303 18.782 124.381 18.536 124.537 18.26C124.705 17.972 124.957 17.69 125.293 17.414C125.629 17.138 126.061 16.91 126.589 16.73C127.117 16.55 127.753 16.46 128.497 16.46C129.277 16.46 129.943 16.55 130.495 16.73C131.047 16.91 131.491 17.162 131.827 17.486C132.175 17.81 132.433 18.194 132.601 18.638C132.769 19.07 132.853 19.55 132.853 20.078V25.55C132.853 25.682 132.805 25.79 132.709 25.874C132.625 25.958 132.523 26 132.403 26H130.315C130.183 26 130.075 25.958 129.991 25.874C129.907 25.79 129.865 25.682 129.865 25.55V24.92C129.709 25.148 129.499 25.358 129.235 25.55C128.971 25.742 128.659 25.892 128.299 26C127.951 26.12 127.543 26.18 127.075 26.18ZM127.921 24.128C128.269 24.128 128.581 24.056 128.857 23.912C129.145 23.756 129.367 23.522 129.523 23.21C129.691 22.886 129.775 22.484 129.775 22.004V21.752L128.245 22.022C127.681 22.118 127.267 22.268 127.003 22.472C126.751 22.664 126.625 22.892 126.625 23.156C126.625 23.36 126.685 23.534 126.805 23.678C126.925 23.822 127.081 23.936 127.273 24.02C127.465 24.092 127.681 24.128 127.921 24.128Z" fill="#EC5863"/>
</svg>
